<?xml version="1.0" standalone="no"?>
<!DOCTYPE svg PUBLIC "-//W3C//DTD SVG 20010904//EN"
 "http://www.w3.org/TR/2001/REC-SVG-20010904/DTD/svg10.dtd">
<svg version="1.0" xmlns="http://www.w3.org/2000/svg"
 width="231.000000pt" height="231.000000pt" viewBox="0 0 231.000000 231.000000"
 preserveAspectRatio="xMidYMid meet">
<metadata>
Created by potrace 1.14, written by Peter Selinger 2001-2017
</metadata>
<g transform="translate(0.000000,231.000000) scale(0.100000,-0.100000)"
fill="#000000" stroke="none">
<path d="M1130 1874 l-315 -91 -3 -97 -3 -96 25 0 c24 0 25 2 28 76 l3 77 268
77 267 78 0 -783 0 -783 -267 78 -268 77 -3 77 c-3 74 -4 76 -28 76 l-25 0 3
-96 3 -97 315 -91 315 -92 3 429 c1 236 1 618 0 851 l-3 422 -315 -92z"/>
<path d="M709 1515 c-156 -57 -251 -162 -285 -313 -15 -66 -15 -87 -5 -147 35
-209 200 -354 406 -357 142 -2 273 65 352 180 44 65 60 106 70 185 l6 47 -49
1 c-100 3 -357 -1 -361 -5 -3 -3 4 -29 15 -58 l20 -53 63 -5 63 -5 -32 -27
c-127 -106 -317 -37 -346 125 -10 55 16 135 56 174 69 65 109 72 266 48 57 -9
53 6 -9 35 -91 43 -198 28 -271 -38 -61 -55 -82 -104 -82 -187 0 -83 21 -132
83 -188 102 -92 265 -81 355 25 24 27 41 39 55 36 20 -3 18 -6 -17 -53 -56
-74 -132 -110 -231 -110 -60 0 -86 5 -121 24 -61 32 -107 76 -138 136 -22 42
-27 63 -27 130 0 67 5 88 27 130 55 105 146 160 263 159 80 0 140 -22 197 -73
32 -28 42 -31 102 -31 43 0 66 4 66 11 0 7 -17 34 -37 61 -45 59 -136 122
-206 143 -61 18 -199 19 -248 0z"/>
</g>
</svg>
